<svg xmlns="http://www.w3.org/2000/svg" xmlns:xlink="http://www.w3.org/1999/xlink"><defs><style>
    .sprite-symbol-usage {display: none;}
    .sprite-symbol-usage:target {display: inline;}
  </style><symbol viewBox="0 0 24 24" fill="none" id="actionsAddToShopCart"><path d="M9 22a2 2 0 100-4 2 2 0 000 4zM20 22a2 2 0 100-4 2 2 0 000 4z" fill="#8D8D8D" /><path d="M3 4h3.273l2.192 10.712c.075.368.28.699.58.934.299.236.673.36 1.057.354h7.953a1.66 1.66 0 001.057-.354c.3-.235.504-.566.579-.934L21 8M14 4v6M11 7h6" stroke="#8D8D8D" stroke-width="2" stroke-linecap="square" stroke-linejoin="round" /></symbol><symbol viewBox="0 0 24 24" fill="none" id="actionsSwap"><path d="M13.938 3l4.524 4.523-4.524 4.523M17.77 7.523H5.538M10.062 20.8l-4.524-4.523 4.524-4.523M6.265 16.277h12.197" stroke="#8D8D8D" stroke-width="2" stroke-linecap="square" /></symbol><symbol viewBox="0 0 24 24" fill="none" id="actionsTrack"><path d="M21 12a9 9 0 11-18 0 9 9 0 0118 0z" stroke="#8D8D8D" stroke-width="2" stroke-linecap="round" stroke-linejoin="round" /><path d="M12 8v8M8 12h8" stroke="#8D8D8D" stroke-width="2" stroke-linecap="square" stroke-linejoin="round" /></symbol><symbol viewBox="0 0 32 32" fill="none" id="activityFire"><path d="M21.822 11.127c.02-.195.279-.265.383-.1 1.634 2.609 2.795 5.27 2.795 7.87C25 24.977 20.38 28 16 28c-4.415 0-9-3.058-9-8.702 0-4.998 3.483-7.663 3.16-11.227-.014-.16.149-.28.287-.199 1.146.682 1.966 1.998 2.11 3.546 1.602-2.311 2.331-5.666 1.63-8.987-.035-.168.138-.304.285-.215 2.59 1.578 6.19 6.046 6.476 11.037.553-.494.786-1.26.874-2.126z" fill="#FF6025" /></symbol><symbol viewBox="0 0 32 32" fill="none" id="activityWater"><path fill-rule="evenodd" clip-rule="evenodd" d="M16.003 29C10.477 29 6 24.632 6 19.246c0-1.908.58-3.673 1.553-5.178.03-.052.044-.12.077-.172l6.443-9.69c1.064-1.608 2.794-1.608 3.864 0l6.443 9.69c.04.065.053.143.09.211.957 1.492 1.53 3.247 1.53 5.139C26 24.632 21.52 29 16.003 29z" fill="#28A1FF" /></symbol><symbol viewBox="0 0 25 24" fill="none" id="buttonArrowRight"><path d="M5.5 12h14M12.5 5l7 7-7 7" stroke="#fff" stroke-width="2" /></symbol><symbol viewBox="0 0 24 24" fill="none" id="checkbox"><path stroke="#B3B3B3" stroke-width="2" d="M3 3h18v18H3z" /></symbol><symbol viewBox="0 0 24 24" fill="none" id="checkboxChecked"><path d="M9 11l3 3L22 4" stroke="#FF6A2A" stroke-width="2" /><path d="M17 3H3v18h18V10.579" stroke="#FF6025" stroke-width="2" /></symbol><symbol viewBox="0 0 24 24" fill="none" id="chipsCircle"><path d="M12 22c5.523 0 10-4.477 10-10S17.523 2 12 2 2 6.477 2 12s4.477 10 10 10z" stroke="#8D8D8D" stroke-width="2" stroke-linecap="round" stroke-linejoin="round" /><path d="M15 9l-6 6M9 9l6 6" stroke="#8D8D8D" stroke-width="2" stroke-linecap="square" stroke-linejoin="round" /></symbol><symbol viewBox="0 0 24 24" fill="none" id="dropdownCheck"><path d="M20 6L9 17l-5-5" stroke="#B3B3B3" stroke-width="2" stroke-linecap="square" stroke-linejoin="round" /></symbol><symbol viewBox="0 0 24 24" fill="none" id="dropdownDown"><path d="M6 9l6 6 6-6" stroke="#B3B3B3" stroke-width="2" stroke-linecap="square" /></symbol><symbol viewBox="0 0 24 24" fill="none" id="dropdownUp"><path d="M18 15l-6-6-6 6" stroke="#B3B3B3" stroke-width="2" stroke-linecap="square" /></symbol><symbol viewBox="0 0 56 56" fill="none" id="guarantee"><path d="M50.552 22.553C50.552 10.117 40.435 0 27.998 0 15.562 0 5.444 10.117 5.444 22.553s10.118 22.553 22.554 22.553c12.437 0 22.554-10.117 22.554-22.553zm-26.575 9.621l-7.7-7.7 2.334-2.334 5.366 5.366L37.386 14.1l2.334 2.333-15.742 15.741zM7.156 37.83L.328 47.788l10.094-1.882L12.305 56l6.393-9.325A25.985 25.985 0 017.156 37.83zM48.84 37.83a25.985 25.985 0 01-11.542 8.845L43.691 56l1.883-10.094 10.094 1.882-6.827-9.958z" fill="#F40" /></symbol><symbol viewBox="0 0 16 16" fill="none" id="labelsCall"><g clip-path="url(#labelsCall_clip0)"><path d="M11.195 5.553c.035-.195.303-.262.402-.092C12.425 6.885 13 8.332 13 9.748 13 13.256 10.433 15 8 15c-2.453 0-5-1.764-5-5.02 0-2.807 1.833-4.338 1.766-6.314-.006-.161.16-.278.29-.183.562.414.957 1.124 1.032 1.95.86-1.29 1.267-3.142.94-4.996-.03-.17.146-.301.288-.202 1.422.995 3.28 3.486 3.433 6.257.247-.229.379-.56.446-.94z" fill="#FF6025" /></g><defs></defs></symbol><clipPath id="labelsCall_clip0"><path fill="#fff" d="M0 0h16v16H0z" /></clipPath><symbol viewBox="0 0 16 16" fill="none" id="labelsClock"><path d="M8 15A7 7 0 108 1a7 7 0 000 14z" fill="#43A687" /><path d="M8 4v4l2 1" stroke="#fff" stroke-width="2" stroke-linecap="square" stroke-linejoin="round" /></symbol><symbol viewBox="0 0 24 24" fill="none" id="mealPlan"><path d="M9.738 15.334l-.65-.877-1.372.204L9.52 12H6v7h6v-7l-2.262 3.334zM19.122 8.078h-3.818c.222-.115.423-.235.599-.363.68-.486 1.04-1.102 1.038-1.714 0-.502-.238-1.22-.583-1.52A1.962 1.962 0 0015.065 4c-.522 0-1.008.18-1.425.458-.626.42-1.116 1.327-1.466 2.02l-.052.102c-.127-.267-.277-.802-.447-1.046a4.105 4.105 0 00-1.07-1.076C10.192 4.18 9.706 4 9.184 4c-.52.001-.997.22-1.353.556-.356.334-.604 1.083-.606 1.62-.002.312.09.64.278.938.237.372.612.698 1.13.964H5.117l.009 3.21h6.599v-3.21h.804v3.21h6.602l-.01-3.21zM8.86 7.074c-.266-.167-.428-.336-.524-.487-.093-.15-.126-.412-.126-.541-.002-.217.106-.595.297-.773.187-.178.44-.288.67-.288h.005c.293.002.585.1.877.293.436.288.847 1.07 1.132 1.643.15.29.263.596.34.894-1.322-.137-2.176-.428-2.671-.74zm4.517-.698c.239-.341.52-.904.81-1.098.29-.193.584-.291.877-.293h.003c.244 0 .479.095.64.237.16.144.245.408.245.593-.003.22-.116.725-.629 1.099-.486.354-1.33.716-2.627.97a4.569 4.569 0 01.681-1.508zM16.275 14.65l-1.379-.193-.651.888-2.245-3.3V19h6v-7h-3.538l1.813 2.65z" fill="#FF6025" /></symbol><symbol viewBox="0 0 24 24" fill="none" id="nav"><path d="M3 12h18M3 6h18M3 18h18" stroke="#fff" stroke-width="2" stroke-linecap="square" /></symbol><symbol viewBox="0 0 24 24" fill="none" id="navCross"><path d="M18 6L6 18M6 6l12 12" stroke="#fff" stroke-width="2" stroke-linecap="square" stroke-linejoin="round" /></symbol><symbol viewBox="0 0 24 24" fill="none" id="navLeft"><path d="M15 18l-6-6 6-6" stroke="#fff" stroke-width="2" stroke-linecap="square" /></symbol><symbol viewBox="0 0 24 24" fill="none" id="navRight"><path d="M9 18l6-6-6-6" stroke="#fff" stroke-width="2" stroke-linecap="square" /></symbol><symbol viewBox="0 0 24 24" fill="none" id="radio"><circle cx="12" cy="12" r="9" stroke="#B3B3B3" stroke-width="2" /></symbol><symbol viewBox="0 0 24 24" fill="none" id="radioChecked"><circle cx="12" cy="12" r="9" stroke="#FF6025" stroke-width="2" /><circle cx="12" cy="12" r="5" fill="#FF6025" /></symbol><symbol viewBox="0 0 24 24" fill="none" id="settings"><path d="M12 8.25A3.75 3.75 0 1015.75 12 3.761 3.761 0 0012 8.25zM20.096 12c-.002.35-.027.7-.077 1.047l2.283 1.787a.543.543 0 01.123.693l-2.16 3.727a.546.546 0 01-.662.231l-2.684-1.078a8.27 8.27 0 01-1.82 1.063l-.4 2.85a.559.559 0 01-.54.461H9.841a.562.562 0 01-.54-.447l-.4-2.849a7.94 7.94 0 01-1.82-1.063L4.396 19.5a.545.545 0 01-.663-.23l-2.16-3.728a.543.543 0 01.124-.692l2.283-1.787A8.186 8.186 0 013.904 12c.002-.35.027-.7.077-1.047L1.698 9.166a.543.543 0 01-.123-.693l2.159-3.727a.546.546 0 01.663-.231L7.08 5.593A8.276 8.276 0 018.9 4.53l.401-2.85a.56.56 0 01.54-.461h4.318a.563.563 0 01.54.446l.4 2.85c.653.271 1.265.63 1.823 1.063L19.603 4.5a.546.546 0 01.663.23l2.159 3.728a.543.543 0 01-.123.693l-2.283 1.787c.049.352.075.707.077 1.062z" fill="#FF6025" /></symbol><symbol viewBox="0 0 32 32" fill="none" id="settingsAccount"><path d="M24 25v-4.5m0-1.5H9.5M8 19v6" stroke="#B3B3B3" stroke-width="2" stroke-linecap="square" stroke-linejoin="round" /><path d="M16 15a4 4 0 100-8 4 4 0 000 8z" stroke="#B3B3B3" stroke-width="2" stroke-linecap="round" stroke-linejoin="round" /></symbol><symbol viewBox="0 0 32 32" fill="none" id="settingsClear"><path d="M9.91 11.195l.88 12.463c.042.776.634 1.342 1.409 1.342H20.3c.778 0 1.36-.566 1.41-1.342l.88-12.463" stroke="#B3B3B3" stroke-width="2" stroke-linecap="round" stroke-linejoin="round" /><path d="M8 10.806h16" stroke="#B3B3B3" stroke-width="2" stroke-miterlimit="10" stroke-linecap="square" /><path d="M13 9.842V7m1.125 0h3.75M19 7v2.842" stroke="#B3B3B3" stroke-width="2" stroke-linecap="square" stroke-linejoin="round" /></symbol><symbol viewBox="0 0 32 32" fill="none" id="settingsHelp"><path d="M16 7a9 9 0 100 18 9 9 0 000-18z" stroke="#B3B3B3" stroke-width="2" stroke-miterlimit="10" /><path d="M13.863 13.369s.035-.739.825-1.374c.469-.378 1.03-.487 1.537-.495.461-.006.873.07 1.12.188.421.2 1.242.691 1.242 1.733 0 1.097-.717 1.596-1.534 2.144-.817.548-1.039 1.143-1.039 1.757" stroke="#B3B3B3" stroke-width="2" stroke-miterlimit="10" stroke-linecap="square" /><path fill="#B3B3B3" d="M15 19h2v2h-2z" /></symbol><symbol viewBox="0 0 32 32" fill="none" id="settingsLanguage"><path d="M16 25a9 9 0 100-18 9 9 0 000 18z" stroke="#B3B3B3" stroke-width="2" stroke-linecap="round" stroke-linejoin="round" /><path d="M16 25c1.8 0 3.258-4.03 3.258-9S17.799 7 16 7c-1.8 0-3.258 4.03-3.258 9S14.2 25 16 25zM7.576 13.12h16.812M7.576 18.88h16.812" stroke="#B3B3B3" stroke-width="2" stroke-linecap="round" stroke-linejoin="round" /></symbol><symbol viewBox="0 0 32 32" fill="none" id="settingsLogOut"><path d="M13 24H9.667M8 24V9.778M8 8h5M20 20l4-4-4-4M23 16H13" stroke="#B3B3B3" stroke-width="2" stroke-linecap="square" /></symbol><symbol viewBox="0 0 32 32" fill="none" id="settingsNotifications"><path d="M21.869 15.051c0 3.809.8 4.512 1.934 5.894.467.57.058 1.431-.759 1.431H8.934c-.822 0-1.199-.859-.729-1.431 1.134-1.382 2.372-2.085 2.375-5.894 0-3.492 1.787-4.73 3.261-5.334H18.5c1.473.603 3.369 1.846 3.369 5.334z" stroke="#B3B3B3" stroke-width="2" stroke-linecap="square" /><path d="M13 23.187h-1 1zM17.627 22v1.187h2V22h-2zm0 1.187c0 .48-.191.942-.532 1.282l1.415 1.414a3.813 3.813 0 001.116-2.696h-2zm-.532 1.282c-.34.34-.8.531-1.282.531v2a3.813 3.813 0 002.697-1.117l-1.415-1.414zM15.813 25c-.48 0-.942-.191-1.282-.531l-1.414 1.414A3.813 3.813 0 0015.813 27v-2zm-1.282-.531A1.813 1.813 0 0114 23.187h-2c0 1.011.402 1.981 1.117 2.696l1.414-1.414zM14 23.187V22h-2v1.187h2zM14 7h4v2h-4z" fill="#B3B3B3" /></symbol><symbol viewBox="0 0 32 32" fill="none" id="settingsPersonalDetails"><path d="M19.5 8.05h-1v2h1v-2zm3.5 2h1v-2h-1v2zm1-.48v-1h-2v1h2zM22 24.5v1h2v-1h-2zm1 1.55h1v-2h-1v2zm-14-2H8v2h1v-2zM8 25v1h2v-1H8zM9 9.05v-1H8v1h1zm4 1h1v-2h-1v2zm6.5 0H23v-2h-3.5v2zm2.5-.48V24.5h2V9.57h-2zm1 14.48H9v2h14v-2zM10 25V9.05H8V25h2zM9 10.05h4v-2H9v2z" fill="#B3B3B3" /><path d="M18.25 7h-4.5c-.414 0-.75.448-.75 1v2c0 .552.336 1 .75 1h4.5c.414 0 .75-.448.75-1V8c0-.552-.336-1-.75-1z" stroke="#B3B3B3" stroke-width="2" stroke-linecap="round" stroke-linejoin="round" /></symbol><symbol viewBox="0 0 32 32" fill="none" id="settingsPrivacy"><path d="M11 13v-2a5 5 0 0110 0v2" stroke="#B3B3B3" stroke-width="2" stroke-linecap="round" stroke-linejoin="round" /><path stroke="#B3B3B3" stroke-width="2" stroke-linecap="square" d="M8 14h16v11H8z" /></symbol><symbol viewBox="0 0 32 32" fill="none" id="settingsRate"><path d="M16.5 8l2.627 5.266 5.873.85-4.25 4.096L21.753 24 16.5 21.266 11.247 24l1.003-5.788L8 14.116l5.873-.85L16.5 8z" stroke="#B3B3B3" stroke-width="2" stroke-linecap="square" /></symbol><symbol viewBox="0 0 32 32" fill="none" id="settingsStartDay"><rect x="8" y="10" width="16" height="14" rx="1" stroke="#B3B3B3" stroke-width="2" /><path fill="#B3B3B3" d="M9 11h14v2H9zM11 15h2v2h-2zM11 19h2v2h-2zM15 15h2v2h-2zM15 19h2v2h-2zM19 15h2v2h-2zM19 19h2v2h-2z" /><rect x="10.5" y="6.5" width="3" height="5" rx="1.5" fill="#B3B3B3" stroke="#1E1E1E" /><rect x="18.5" y="6.5" width="3" height="5" rx="1.5" fill="#B3B3B3" stroke="#1E1E1E" /></symbol><symbol viewBox="0 0 32 32" fill="none" id="settingsSupport"><path d="M11.556 20.444H24V8H8v16l3.556-3.556z" stroke="#B3B3B3" stroke-width="2" stroke-linecap="square" /></symbol><symbol viewBox="0 0 32 32" fill="none" id="settingsTerms"><path d="M17 8v6h6" stroke="#B3B3B3" stroke-width="2" stroke-linecap="square" /><path d="M17.143 7L24 13v12H8V7h9.143z" stroke="#B3B3B3" stroke-width="2" stroke-linecap="square" /></symbol><symbol viewBox="0 0 32 32" fill="none" id="settingsUnits"><path d="M19.111 9H24v16H8V9h4.889" stroke="#B3B3B3" stroke-width="2" /><circle cx="16" cy="9" r="3" stroke="#B3B3B3" stroke-width="2" /><path fill="#B3B3B3" d="M15 20h2v4h-2z" /></symbol><symbol viewBox="0 0 24 24" fill="none" id="shareAndroid"><path d="M18 16.078c.813 0 1.5.297 2.063.89.562.563.843 1.235.843 2.016 0 .813-.297 1.516-.89 2.11-.563.562-1.235.843-2.016.843-.781 0-1.469-.28-2.063-.843a2.964 2.964 0 01-.843-2.11c0-.312.015-.53.047-.656l-7.079-4.125A3 3 0 016 15c-.813 0-1.516-.297-2.11-.89C3.298 13.515 3 12.812 3 12s.297-1.516.89-2.11C4.485 9.298 5.188 9 6 9a3 3 0 012.063.797l7.03-4.078A3.94 3.94 0 0115 5.016c0-.813.297-1.516.89-2.11.594-.594 1.297-.89 2.11-.89s1.516.296 2.11.89c.593.594.89 1.297.89 2.11 0 .812-.297 1.515-.89 2.109-.594.594-1.297.89-2.11.89-.75 0-1.438-.28-2.063-.843l-7.03 4.125c.062.312.093.547.093.703 0 .156-.031.39-.094.703l7.125 4.125c.563-.5 1.219-.75 1.969-.75z" fill="#fff" /></symbol><symbol viewBox="0 0 24 24" fill="none" id="shareiOS"><path fill-rule="evenodd" clip-rule="evenodd" d="M12.368.165l3.764 3.825a.687.687 0 010 .956.648.648 0 01-.932 0l-2.53-2.57v13.7a.668.668 0 01-.66.677.668.668 0 01-.661-.676V2.408l-2.5 2.538a.664.664 0 01-.932 0 .686.686 0 010-.956L11.681.165c.218-.22.471-.22.687 0zm7.581 9.567v12.683c0 .875-.71 1.585-1.585 1.585H5.684C4.81 24 4.1 23.29 4.1 22.415V9.732c0-.876.71-1.585 1.585-1.585h3.387v1.358H6.288a.83.83 0 00-.83.83v11.476c0 .458.372.83.83.83h11.473a.83.83 0 00.83-.83V10.335a.83.83 0 00-.83-.83h-2.793V8.147h3.396c.875 0 1.585.709 1.585 1.585z" fill="#fff" /></symbol><symbol viewBox="0 0 24 24" fill="none" id="tabExplore"><path d="M12 22c5.523 0 10-4.477 10-10S17.523 2 12 2 2 6.477 2 12s4.477 10 10 10z" stroke="#6A6A6A" stroke-width="2" stroke-linecap="round" stroke-linejoin="round" /><path d="M16.24 7.76l-2.12 6.36-6.36 2.12 2.12-6.36 6.36-2.12z" stroke="#6A6A6A" stroke-width="2" stroke-linecap="square" stroke-linejoin="bevel" /></symbol><symbol viewBox="0 0 24 24" fill="none" id="tabMeal"><path d="M20 2.5V21" stroke="#6A6A6A" stroke-width="2" /><path d="M15 14.5l-.264.964-.653-1.363.917.399zm4.212 2.191l-4.476-1.226.528-1.93 4.477 1.227-.529 1.929zm-5.13-2.59l5-11.5 1.835.798-5 11.5-1.834-.798z" fill="#6A6A6A" /><path d="M8 3v18" stroke="#6A6A6A" stroke-width="2" /><path d="M8 11l4.477-1.5-.5-6.5M8 11L3.523 9.5l.5-6.5" stroke="#6A6A6A" stroke-width="2" stroke-linejoin="bevel" /></symbol><symbol viewBox="0 0 24 24" fill="none" id="tabProgress"><path stroke="#6A6A6A" stroke-width="2" d="M3 12h6v8H3zM9 4h6v16H9zM15 8h6v12h-6z" /></symbol><symbol viewBox="0 0 24 24" fill="none" id="tabWorkout"><circle cx="12" cy="4" r="2" fill="#6A6A6A" /><path d="M3 9h9m0 0h10M12 9v6m0 0l-9 5.5m9-5.5h5v7" stroke="#6A6A6A" stroke-width="2" stroke-linejoin="bevel" /></symbol><symbol viewBox="0 0 32 32" fill="none" id="tinderHate"><path d="M26 6L6 26M6 6l20 20" stroke="#F40" stroke-width="4" stroke-linecap="square" stroke-linejoin="round" /></symbol><symbol viewBox="0 0 32 32" fill="none" id="tinderLove"><path d="M20.613 5L16 8.26 11.806 5H7.194L3 9.889v4.074L16 27l13-13.037V9.889L25.226 5h-4.613z" stroke="#F40" stroke-width="4" /></symbol><symbol viewBox="0 0 32 32" fill="none" id="tinderNeutral"><path d="M16 0C7.163 0 0 7.164 0 16c0 8.837 7.164 16 16 16s16-7.163 16-16c0-8.836-7.164-16-16-16zm0 28.522C9.084 28.522 3.477 22.916 3.477 16S9.085 3.478 16 3.478c6.917 0 12.522 5.606 12.522 12.522S22.916 28.522 16 28.522z" fill="#F40" /><path d="M11.304 14.444a2.319 2.319 0 100-4.638 2.319 2.319 0 000 4.638zM20.695 14.444a2.319 2.319 0 100-4.638 2.319 2.319 0 000 4.638zM10 18h12v3H10z" fill="#F40" /></symbol><symbol viewBox="0 0 24 24" fill="none" id="upsellBenefit"><path d="M12 22c5.523 0 10-4.477 10-10S17.523 2 12 2 2 6.477 2 12s4.477 10 10 10z" fill="#1E1E1E" /><path d="M16.5 9l-5.188 5.5L9 12" stroke="#EDEDED" stroke-width="2" stroke-linecap="square" /></symbol><symbol viewBox="0 0 24 24" fill="none" id="variousArrowLeft"><path d="M19 12H5M12 19l-7-7 7-7" stroke="#4F4F4F" stroke-width="2" /></symbol><symbol viewBox="0 0 24 24" fill="none" id="variousArrowRight"><path d="M5 12h14M12 5l7 7-7 7" stroke="#4F4F4F" stroke-width="2" /></symbol><symbol viewBox="0 0 24 24" fill="none" id="variousCheck"><path fill="#1E1E1E" d="M2 2h20v20H2z" /><path d="M12 22c5.523 0 10-4.477 10-10S17.523 2 12 2 2 6.477 2 12s4.477 10 10 10z" fill="#1E1E1E" /><path d="M16.5 9l-5.188 5.5L9 12" stroke="#EDEDED" stroke-width="2" stroke-linecap="square" /></symbol><symbol viewBox="0 0 24 24" fill="none" id="variousCheckGreen"><path d="M20 6L9 17l-5-5" stroke="#75C6AC" stroke-width="3" stroke-linecap="square" /></symbol><symbol viewBox="0 0 24 24" fill="none" id="variousCheckOrange"><path d="M16.5 9l-5.188 5.5L9 12" stroke="#FF6025" stroke-width="2" stroke-linecap="square" /></symbol><symbol viewBox="0 0 24 24" fill="none" id="variousCross"><path d="M21 5.093L18.907 3 12 9.907 5.093 3 3 5.093 9.907 12 3 18.907 5.093 21 12 14.093 18.907 21 21 18.907 14.093 12 21 5.093z" fill="#EC3E4F" /></symbol><symbol viewBox="0 0 24 24" fill="none" id="variousDelete"><path d="M5.91 7.195l.88 12.463c.042.776.634 1.342 1.409 1.342H16.3c.778 0 1.36-.566 1.41-1.342l.88-12.463" stroke="#fff" stroke-width="2" stroke-linecap="round" stroke-linejoin="round" /><path d="M4 6.806h16" stroke="#fff" stroke-width="2" stroke-miterlimit="10" stroke-linecap="square" /><path d="M9 5.842V4.066c0-.14.028-.28.085-.409.056-.129.139-.247.244-.346.104-.099.228-.177.365-.23.137-.054.283-.081.431-.081h3.75c.148 0 .294.027.431.08.137.054.26.132.366.231.104.1.187.217.243.346.057.13.085.269.085.409v1.776" stroke="#fff" stroke-width="2" stroke-linecap="square" stroke-linejoin="round" /></symbol><symbol viewBox="0 0 24 24" fill="none" id="variousError"><path d="M12 22c5.523 0 10-4.477 10-10S17.523 2 12 2 2 6.477 2 12s4.477 10 10 10z" fill="#EC3E4F" /><path d="M12 8v4M12 16h.01" stroke="#fff" stroke-width="2" stroke-linecap="square" stroke-linejoin="round" /></symbol><symbol viewBox="0 0 24 24" fill="none" id="variousFilled"><path d="M12 22c5.523 0 10-4.477 10-10S17.523 2 12 2 2 6.477 2 12s4.477 10 10 10z" stroke="#34C3B7" stroke-width="2" stroke-linecap="round" stroke-linejoin="round" /><path d="M16.5 9l-5.188 5.5L9 12" stroke="#34C3B7" stroke-width="2" stroke-linecap="square" /></symbol><symbol viewBox="0 0 24 24" fill="none" id="variousFilledOrange"><path d="M12 22c5.523 0 10-4.477 10-10S17.523 2 12 2 2 6.477 2 12s4.477 10 10 10z" stroke="#FF6025" stroke-width="2" stroke-linecap="round" stroke-linejoin="round" /><path d="M16.5 9l-5.188 5.5L9 12" stroke="#FF6025" stroke-width="2" stroke-linecap="square" /></symbol><symbol viewBox="0 0 24 24" fill="none" id="variousFilledWhite"><path d="M12 22c5.523 0 10-4.477 10-10S17.523 2 12 2 2 6.477 2 12s4.477 10 10 10z" fill="#2a2a2a" /><path d="M16.5 9l-5.188 5.5L9 12" stroke="#ededed" stroke-width="2" stroke-linecap="square" /></symbol><symbol viewBox="0 0 24 24" fill="none" id="variousFilter"><path d="M22 6H2v2h20V6zM19 11H5v2h14v-2zM15 16H9v2h6v-2z" fill="#fff" /></symbol><symbol viewBox="0 0 16 16" fill="none" id="variousFire"><path d="M10.863 5.878c.04-.192.305-.26.405-.093.729 1.217 1.232 2.453 1.232 3.663C12.5 12.488 10.19 14 8 14c-2.207 0-4.5-1.529-4.5-4.35 0-2.411 1.62-3.736 1.59-5.426-.002-.16.161-.279.29-.183.49.36.833.967.899 1.668.766-1.105 1.133-2.688.856-4.276-.03-.17.145-.302.287-.204 1.275.88 2.916 3.02 3.052 5.397.207-.185.325-.447.389-.748z" fill="#fff" /></symbol><symbol viewBox="0 0 24 24" fill="none" id="variousGift"><path d="M9.738 15.334l-.65-.877-1.372.204L9.52 12H6v7h6v-7l-2.262 3.334zM19.122 8.078h-3.818c.222-.115.423-.235.599-.363.68-.486 1.04-1.102 1.038-1.714 0-.502-.238-1.22-.583-1.52A1.962 1.962 0 0015.065 4c-.522 0-1.008.18-1.425.458-.626.42-1.116 1.327-1.466 2.02l-.052.102c-.127-.267-.277-.802-.447-1.046a4.105 4.105 0 00-1.07-1.076C10.192 4.18 9.706 4 9.184 4c-.52.001-.997.22-1.353.556-.356.334-.604 1.083-.606 1.62-.002.312.09.64.278.938.237.372.612.698 1.13.964H5.117l.009 3.21h6.599v-3.21h.804v3.21h6.602l-.01-3.21zM8.86 7.074c-.266-.167-.428-.336-.524-.487-.093-.15-.126-.412-.126-.541-.002-.217.106-.595.297-.773.187-.178.44-.288.67-.288h.005c.293.002.585.1.877.293.436.288.847 1.07 1.132 1.643.15.29.263.596.34.894-1.322-.137-2.176-.428-2.671-.74zm4.517-.698c.239-.341.52-.904.81-1.098.29-.193.584-.291.877-.293h.003c.244 0 .479.095.64.237.16.144.245.408.245.593-.003.22-.116.725-.629 1.099-.486.354-1.33.716-2.627.97a4.569 4.569 0 01.681-1.508zM16.275 14.65l-1.379-.193-.651.888-2.245-3.3V19h6v-7h-3.538l1.813 2.65z" fill="#FF6025" /></symbol><symbol viewBox="0 0 24 24" fill="none" id="variousRetry"><path d="M23 4v6h-6" stroke="#fff" stroke-width="2" stroke-linecap="square" /><path d="M20.49 15a9 9 0 11-7.222-11.909C15.2 3.365 16.984 4.5 18.37 5.64L22.5 9.5" stroke="#fff" stroke-width="2" stroke-linecap="square" /></symbol><symbol viewBox="0 0 24 24" fill="none" id="variousTime"><path fill-rule="evenodd" clip-rule="evenodd" d="M11.992 3.818a8.182 8.182 0 100 16.364 8.182 8.182 0 000-16.364zM1.992 12c0-5.523 4.477-10 10-10s10 4.477 10 10-4.477 10-10 10-10-4.477-10-10z" fill="#fff" /><path fill-rule="evenodd" clip-rule="evenodd" d="M12.429 6v5.5H16V13h-5V6h1.429z" fill="#fff" /></symbol><symbol viewBox="0 0 24 24" fill="none" id="variousWeight"><path d="M15.111 6H20v16H4V6h4.889" stroke="#fff" stroke-width="2" /><circle cx="12" cy="6" r="3" stroke="#fff" stroke-width="2" /><path fill="#fff" d="M11 17h2v4h-2z" /></symbol><symbol viewBox="0 0 40 40" fill="none" id="warning"><path d="M1.667 35h36.666L20 3.333 1.667 35zm20-5h-3.334v-3.333h3.334V30zm0-6.667h-3.334v-6.666h3.334v6.666z" fill="#FF6025" /></symbol><symbol viewBox="0 0 24 24" fill="none" id="warning-circle"><path d="M12 22c5.523 0 10-4.477 10-10S17.523 2 12 2 2 6.477 2 12s4.477 10 10 10zM12 16v-4M12 8h.01" stroke="#fff" stroke-width="2" stroke-linecap="round" stroke-linejoin="round" /></symbol></defs><use id="actionsAddToShopCart-usage" xlink:href="#actionsAddToShopCart" class="sprite-symbol-usage" /><use id="actionsSwap-usage" xlink:href="#actionsSwap" class="sprite-symbol-usage" /><use id="actionsTrack-usage" xlink:href="#actionsTrack" class="sprite-symbol-usage" /><use id="activityFire-usage" xlink:href="#activityFire" class="sprite-symbol-usage" /><use id="activityWater-usage" xlink:href="#activityWater" class="sprite-symbol-usage" /><use id="buttonArrowRight-usage" xlink:href="#buttonArrowRight" class="sprite-symbol-usage" /><use id="checkbox-usage" xlink:href="#checkbox" class="sprite-symbol-usage" /><use id="checkboxChecked-usage" xlink:href="#checkboxChecked" class="sprite-symbol-usage" /><use id="chipsCircle-usage" xlink:href="#chipsCircle" class="sprite-symbol-usage" /><use id="dropdownCheck-usage" xlink:href="#dropdownCheck" class="sprite-symbol-usage" /><use id="dropdownDown-usage" xlink:href="#dropdownDown" class="sprite-symbol-usage" /><use id="dropdownUp-usage" xlink:href="#dropdownUp" class="sprite-symbol-usage" /><use id="guarantee-usage" xlink:href="#guarantee" class="sprite-symbol-usage" /><use id="labelsCall-usage" xlink:href="#labelsCall" class="sprite-symbol-usage" /><use id="labelsClock-usage" xlink:href="#labelsClock" class="sprite-symbol-usage" /><use id="mealPlan-usage" xlink:href="#mealPlan" class="sprite-symbol-usage" /><use id="nav-usage" xlink:href="#nav" class="sprite-symbol-usage" /><use id="navCross-usage" xlink:href="#navCross" class="sprite-symbol-usage" /><use id="navLeft-usage" xlink:href="#navLeft" class="sprite-symbol-usage" /><use id="navRight-usage" xlink:href="#navRight" class="sprite-symbol-usage" /><use id="radio-usage" xlink:href="#radio" class="sprite-symbol-usage" /><use id="radioChecked-usage" xlink:href="#radioChecked" class="sprite-symbol-usage" /><use id="settings-usage" xlink:href="#settings" class="sprite-symbol-usage" /><use id="settingsAccount-usage" xlink:href="#settingsAccount" class="sprite-symbol-usage" /><use id="settingsClear-usage" xlink:href="#settingsClear" class="sprite-symbol-usage" /><use id="settingsHelp-usage" xlink:href="#settingsHelp" class="sprite-symbol-usage" /><use id="settingsLanguage-usage" xlink:href="#settingsLanguage" class="sprite-symbol-usage" /><use id="settingsLogOut-usage" xlink:href="#settingsLogOut" class="sprite-symbol-usage" /><use id="settingsNotifications-usage" xlink:href="#settingsNotifications" class="sprite-symbol-usage" /><use id="settingsPersonalDetails-usage" xlink:href="#settingsPersonalDetails" class="sprite-symbol-usage" /><use id="settingsPrivacy-usage" xlink:href="#settingsPrivacy" class="sprite-symbol-usage" /><use id="settingsRate-usage" xlink:href="#settingsRate" class="sprite-symbol-usage" /><use id="settingsStartDay-usage" xlink:href="#settingsStartDay" class="sprite-symbol-usage" /><use id="settingsSupport-usage" xlink:href="#settingsSupport" class="sprite-symbol-usage" /><use id="settingsTerms-usage" xlink:href="#settingsTerms" class="sprite-symbol-usage" /><use id="settingsUnits-usage" xlink:href="#settingsUnits" class="sprite-symbol-usage" /><use id="shareAndroid-usage" xlink:href="#shareAndroid" class="sprite-symbol-usage" /><use id="shareiOS-usage" xlink:href="#shareiOS" class="sprite-symbol-usage" /><use id="tabExplore-usage" xlink:href="#tabExplore" class="sprite-symbol-usage" /><use id="tabMeal-usage" xlink:href="#tabMeal" class="sprite-symbol-usage" /><use id="tabProgress-usage" xlink:href="#tabProgress" class="sprite-symbol-usage" /><use id="tabWorkout-usage" xlink:href="#tabWorkout" class="sprite-symbol-usage" /><use id="tinderHate-usage" xlink:href="#tinderHate" class="sprite-symbol-usage" /><use id="tinderLove-usage" xlink:href="#tinderLove" class="sprite-symbol-usage" /><use id="tinderNeutral-usage" xlink:href="#tinderNeutral" class="sprite-symbol-usage" /><use id="upsellBenefit-usage" xlink:href="#upsellBenefit" class="sprite-symbol-usage" /><use id="variousArrowLeft-usage" xlink:href="#variousArrowLeft" class="sprite-symbol-usage" /><use id="variousArrowRight-usage" xlink:href="#variousArrowRight" class="sprite-symbol-usage" /><use id="variousCheck-usage" xlink:href="#variousCheck" class="sprite-symbol-usage" /><use id="variousCheckGreen-usage" xlink:href="#variousCheckGreen" class="sprite-symbol-usage" /><use id="variousCheckOrange-usage" xlink:href="#variousCheckOrange" class="sprite-symbol-usage" /><use id="variousCross-usage" xlink:href="#variousCross" class="sprite-symbol-usage" /><use id="variousDelete-usage" xlink:href="#variousDelete" class="sprite-symbol-usage" /><use id="variousError-usage" xlink:href="#variousError" class="sprite-symbol-usage" /><use id="variousFilled-usage" xlink:href="#variousFilled" class="sprite-symbol-usage" /><use id="variousFilledOrange-usage" xlink:href="#variousFilledOrange" class="sprite-symbol-usage" /><use id="variousFilledWhite-usage" xlink:href="#variousFilledWhite" class="sprite-symbol-usage" /><use id="variousFilter-usage" xlink:href="#variousFilter" class="sprite-symbol-usage" /><use id="variousFire-usage" xlink:href="#variousFire" class="sprite-symbol-usage" /><use id="variousGift-usage" xlink:href="#variousGift" class="sprite-symbol-usage" /><use id="variousRetry-usage" xlink:href="#variousRetry" class="sprite-symbol-usage" /><use id="variousTime-usage" xlink:href="#variousTime" class="sprite-symbol-usage" /><use id="variousWeight-usage" xlink:href="#variousWeight" class="sprite-symbol-usage" /><use id="warning-usage" xlink:href="#warning" class="sprite-symbol-usage" /><use id="warning-circle-usage" xlink:href="#warning-circle" class="sprite-symbol-usage" /></svg>